# xmcd
#
# Track frame offsets:
#	150
#	24162
#	41092
#	61110
#	81045
#	102947
#	128830
#	146245
#	166697
#	195417
#	214520
#	233400
#	257630
#	282175
#	305807
#
# Disc length: 4426 seconds
#
# Revision: 4
# Processed by: cddbd v1.5.2PL0 Copyright (c) Steve Scherf et al.
# Submitted via: EasyCDDAExtractor 15.3.0.1
#
DISCID=c211480f
DTITLE=Sentidos Opuestos - En Vivo
DYEAR=2001
DGENRE=Latin
TTITLE0=Esta Noche
TTITLE1=Tu Loco Amor
TTITLE2=Nada
TTITLE3=Ardiente Tentacion
TTITLE4=Fuego Y Pasion
TTITLE5=Historias De Amor
TTITLE6=Tu Y Yo
TTITLE7=Mirame
TTITLE8=Escribeme En El Cielo
TTITLE9=Sentidos Opuestos
TTITLE10=Fiesta
TTITLE11=Donde Estan
TTITLE12=Amor De Papel
TTITLE13=Cuando La Pobreza
TTITLE14=Eternamente
EXTD=
EXTT0=
EXTT1=
EXTT2=
EXTT3=
EXTT4=
EXTT5=
EXTT6=
EXTT7=
EXTT8=
EXTT9=
EXTT10=
EXTT11=
EXTT12=
EXTT13=
EXTT14=
PLAYORDER=
